<svg width="135" height="108" viewBox="0 0 135 108" fill="none" xmlns="http://www.w3.org/2000/svg">
<path d="M2.32081 94.3818L48.1914 47.8828C53.2151 42.7902 61.8866 46.3475 61.8866 53.501V100C61.8866 104.418 58.3049 108 53.8866 108H8.016C0.91497 108 -2.6661 99.437 2.32081 94.3818Z" fill="url(#paint0_linear_1_1099)"/>
<path d="M38.3208 94.3817L84.1914 47.8828C89.2152 42.7902 97.8866 46.3475 97.8866 53.501V100C97.8866 104.418 94.3049 108 89.8866 108H44.016C36.915 108 33.3339 99.437 38.3208 94.3817Z" fill="url(#paint1_linear_1_1099)" fill-opacity="0.75"/>
<path d="M74.5434 94.3432L121.23 47.6569C126.269 42.6171 134.887 46.1865 134.887 53.3137V100C134.887 104.418 131.305 108 126.887 108H80.2003C73.0731 108 69.5037 99.3829 74.5434 94.3432Z" fill="url(#paint2_linear_1_1099)" fill-opacity="0.5"/>
<path d="M125.887 33C125.887 35.7614 127.901 38 130.387 38C132.872 38 134.887 35.7614 134.887 33C134.887 30.2386 132.872 28 130.387 28C127.901 28 125.887 30.2386 125.887 33Z" fill="#82B086"/>
<path d="M125.887 19C125.887 21.7614 127.901 24 130.387 24C132.872 24 134.887 21.7614 134.887 19C134.887 16.2386 132.872 14 130.387 14C127.901 14 125.887 16.2386 125.887 19Z" fill="#4C876A"/>
<path d="M125.887 5C125.887 7.76142 127.901 10 130.387 10C132.872 10 134.887 7.76142 134.887 5C134.887 2.23858 132.872 0 130.387 0C127.901 0 125.887 2.23858 125.887 5Z" fill="#256D3F"/>
<defs>
<linearGradient id="paint0_linear_1_1099" x1="67.4433" y1="0" x2="67.4433" y2="108" gradientUnits="userSpaceOnUse">
<stop stop-color="#014762"/>
<stop offset="1" stop-color="#448E1F"/>
</linearGradient>
<linearGradient id="paint1_linear_1_1099" x1="67.4433" y1="0" x2="67.4433" y2="108" gradientUnits="userSpaceOnUse">
<stop stop-color="#014762"/>
<stop offset="1" stop-color="#448E1F"/>
</linearGradient>
<linearGradient id="paint2_linear_1_1099" x1="67.4433" y1="0" x2="67.4433" y2="108" gradientUnits="userSpaceOnUse">
<stop stop-color="#014762"/>
<stop offset="1" stop-color="#448E1F"/>
</linearGradient>
</defs>
</svg>
